<?xml version="1.0" standalone="no"?>
<!DOCTYPE svg PUBLIC "-//W3C//DTD SVG 20010904//EN"
 "http://www.w3.org/TR/2001/REC-SVG-20010904/DTD/svg10.dtd">
<svg version="1.0" xmlns="http://www.w3.org/2000/svg"
 width="512.000000pt" height="512.000000pt" viewBox="0 0 512.000000 512.000000"
 preserveAspectRatio="xMidYMid meet">

<g transform="translate(0.000000,512.000000) scale(0.100000,-0.100000)"
fill="#000000" stroke="none">
<path d="M2734 5109 c-44 -13 -112 -83 -124 -129 -7 -25 -9 -544 -8 -1552 l3
-1515 27 -39 c15 -21 44 -50 65 -64 l36 -25 384 -5 384 -5 -301 -174 c-165
-95 -309 -175 -318 -178 -13 -3 -92 71 -277 259 -277 280 -321 315 -455 360
-62 21 -83 23 -507 26 l-441 3 -4 124 c-3 120 -4 124 -34 161 -44 55 -72 73
-133 84 -73 14 -904 13 -954 -1 -26 -7 -44 -21 -57 -42 -19 -31 -20 -61 -20
-1179 l0 -1148 29 -32 29 -33 484 -3 c325 -2 495 0 520 8 20 6 51 22 68 36 53
45 64 78 70 206 l5 116 155 -95 c193 -118 287 -166 398 -203 201 -66 150 -63
1110 -67 836 -4 879 -3 990 16 140 24 246 57 367 116 126 60 168 90 502 360
320 259 349 290 378 400 19 73 19 115 1 183 -62 230 -327 347 -538 238 -60
-31 -601 -439 -628 -473 -46 -59 -2 -153 72 -153 44 0 55 8 369 245 182 138
284 208 311 216 81 21 164 -13 205 -86 40 -71 25 -142 -43 -206 -60 -56 -520
-425 -583 -468 -128 -87 -281 -148 -445 -176 -75 -13 -218 -15 -905 -15 -883
0 -924 2 -1084 54 -106 35 -167 67 -419 219 l-218 131 0 633 0 633 393 0 c241
0 416 -4 452 -11 114 -21 139 -41 475 -374 195 -193 331 -320 357 -334 87 -43
144 -51 388 -51 199 0 235 -2 265 -18 107 -53 107 -210 0 -265 -32 -16 -70
-17 -470 -15 -510 3 -438 -13 -702 159 -195 127 -233 140 -282 98 -37 -33 -46
-94 -18 -130 28 -34 372 -257 442 -285 101 -41 161 -45 615 -42 l430 3 57 27
c75 35 138 94 174 165 26 52 29 68 29 153 0 81 -4 103 -25 145 -36 74 -101
138 -173 171 -61 29 -65 29 -292 34 l-229 5 411 237 411 237 539 3 539 3 37
25 c21 14 50 43 65 64 l27 39 0 1537 0 1537 -27 39 c-15 21 -44 50 -65 64
l-37 25 -1110 2 c-649 1 -1124 -2 -1142 -8z m2186 -1659 l0 -1470 -1060 0
-1060 0 0 1470 0 1470 1060 0 1060 0 0 -1470z m-3920 -2230 l0 -1020 -400 0
-400 0 0 1020 0 1020 400 0 400 0 0 -1020z"/>
<path d="M3738 4710 c-280 -51 -503 -251 -589 -530 -34 -107 -34 -292 -1 -400
79 -254 257 -432 512 -511 107 -34 293 -34 400 0 255 79 433 257 512 511 33
108 33 293 -1 400 -77 251 -259 433 -506 510 -79 24 -249 35 -327 20z m258
-210 c96 -25 169 -67 243 -141 74 -74 116 -147 141 -243 24 -94 25 -168 5
-255 -12 -51 -55 -154 -69 -169 -2 -1 -30 23 -63 55 -32 32 -76 67 -96 78 -25
13 -36 25 -33 35 3 8 12 33 20 55 20 54 20 188 0 249 -24 69 -102 150 -170
175 -122 46 -249 18 -332 -74 -29 -31 -57 -74 -66 -101 -20 -61 -20 -195 0
-249 8 -22 17 -47 20 -55 3 -10 -8 -22 -33 -35 -20 -11 -64 -46 -96 -78 -33
-32 -61 -56 -63 -55 -14 15 -57 118 -69 169 -20 87 -19 161 5 255 25 96 67
169 141 243 73 73 147 116 239 140 97 26 178 26 276 1z m-65 -369 c26 -26 29
-36 29 -94 0 -54 -4 -68 -24 -90 -13 -14 -36 -29 -50 -33 -37 -9 -74 3 -102
33 -20 22 -24 36 -24 90 0 58 3 68 29 94 23 23 38 29 71 29 33 0 48 -6 71 -29z
m82 -459 c71 -33 162 -119 147 -137 -33 -40 -206 -95 -300 -95 -94 0 -267 55
-300 95 -13 16 72 101 132 131 68 35 113 44 191 39 49 -3 87 -13 130 -33z"/>
<path d="M3284 2990 c-32 -13 -64 -59 -64 -91 0 -18 11 -41 29 -61 l29 -33
616 -3 615 -2 33 29 c27 24 33 36 33 71 0 35 -6 47 -33 71 l-32 29 -603 -1
c-331 0 -612 -4 -623 -9z"/>
<path d="M3284 2550 c-32 -13 -64 -59 -64 -91 0 -18 11 -41 29 -61 l29 -33
394 -3 c216 -1 404 0 416 3 13 3 35 18 48 32 43 46 27 121 -33 152 -26 13
-786 15 -819 1z"/>
<path d="M4445 2551 c-64 -27 -81 -110 -32 -158 60 -61 162 -19 162 67 0 66
-72 116 -130 91z"/>
<path d="M543 1412 c-38 -29 -43 -64 -43 -278 0 -229 6 -255 63 -279 43 -18
82 -9 112 27 l25 30 0 230 0 230 -29 29 c-35 34 -92 39 -128 11z"/>
<path d="M565 691 c-37 -16 -60 -51 -60 -93 0 -33 6 -45 33 -69 18 -16 43 -29
57 -29 58 0 105 47 105 104 0 56 -83 109 -135 87z"/>
<path d="M2223 4659 c-12 -4 -226 -125 -475 -269 -476 -274 -521 -306 -534
-377 -18 -94 -25 -80 450 -903 246 -426 457 -783 469 -792 36 -28 93 -23 128
11 33 33 38 75 15 120 -8 15 -206 359 -440 765 -234 405 -426 740 -426 744 1
4 203 124 451 266 247 142 459 270 469 284 25 31 26 89 2 120 -21 27 -78 43
-109 31z"/>
</g>
</svg>
