<?xml version="1.0" standalone="no"?>
<!DOCTYPE svg PUBLIC "-//W3C//DTD SVG 20010904//EN"
 "http://www.w3.org/TR/2001/REC-SVG-20010904/DTD/svg10.dtd">
<svg version="1.0" xmlns="http://www.w3.org/2000/svg"
 width="512.000000pt" height="512.000000pt" viewBox="0 0 512.000000 512.000000"
 preserveAspectRatio="xMidYMid meet">

<g transform="translate(0.000000,512.000000) scale(0.100000,-0.100000)"
fill="#000000" stroke="none">
<path d="M1102 4729 c-220 -26 -451 -119 -617 -249 -22 -17 -78 -68 -123 -113
-372 -366 -467 -940 -233 -1412 169 -340 442 -561 820 -663 94 -25 104 -26
488 -30 l393 -4 55 -94 c59 -100 85 -121 129 -104 26 10 56 46 56 69 0 8 -99
186 -220 396 -192 334 -220 387 -220 424 0 91 56 152 144 158 104 8 82 39 526
-731 219 -379 405 -693 414 -698 30 -17 78 -5 100 25 17 23 18 32 10 56 -6 15
-93 170 -193 343 -109 189 -181 325 -181 341 0 31 33 58 142 115 75 40 106 44
127 18 5 -6 90 -153 190 -326 100 -173 191 -323 203 -332 11 -10 31 -18 45
-18 30 0 73 42 73 72 0 13 -86 171 -190 353 -105 181 -190 335 -190 343 0 30
25 54 105 102 113 66 127 69 162 34 16 -16 109 -169 207 -341 201 -349 214
-364 280 -312 45 36 37 63 -93 288 -164 285 -159 271 -118 308 31 29 181 113
200 113 9 0 27 -10 41 -22 13 -13 163 -263 332 -556 219 -381 315 -557 335
-615 143 -418 -56 -876 -459 -1059 -134 -61 -298 -87 -439 -69 -46 6 -300 69
-565 140 -266 71 -620 166 -788 211 -168 45 -309 85 -313 89 -13 13 30 144 62
188 61 84 156 134 254 135 42 0 114 -14 220 -41 96 -26 167 -39 180 -35 57 17
92 87 67 135 -62 119 -297 512 -313 524 -30 21 -52 19 -83 -8 -45 -39 -37 -64
85 -274 61 -105 111 -194 111 -196 0 -2 -39 7 -87 20 -313 84 -563 -61 -638
-368 -20 -79 -13 -124 26 -173 31 -39 66 -54 243 -101 89 -24 415 -112 726
-195 790 -212 752 -203 900 -204 69 0 152 6 185 13 442 93 758 430 815 871 15
119 7 239 -25 368 -31 121 -61 185 -209 440 -65 112 -116 205 -114 206 1 1 32
10 67 20 339 91 621 323 780 643 191 382 170 841 -56 1200 -182 291 -461 488
-798 564 -100 23 -102 23 -1176 26 l-1075 4 -27 -21 c-34 -27 -37 -80 -7 -110
20 -20 33 -20 1043 -20 684 0 1052 -4 1112 -11 239 -29 449 -128 622 -292 101
-97 164 -182 228 -312 268 -541 45 -1189 -499 -1455 -117 -58 -284 -105 -302
-87 -6 7 -64 104 -129 217 -64 113 -131 227 -147 253 -52 82 -159 125 -243 97
-37 -12 -183 -93 -236 -131 l-27 -19 -22 35 c-34 55 -102 90 -175 90 -55 0
-70 -5 -165 -58 -110 -62 -162 -103 -187 -150 -10 -21 -20 -27 -33 -24 -36 9
-104 -14 -195 -65 -49 -28 -100 -60 -113 -72 l-23 -21 -17 23 c-9 12 -74 122
-144 245 l-128 222 26 63 c53 132 67 206 67 362 0 117 -4 161 -22 225 -25 95
-100 255 -135 290 -32 32 -75 33 -104 2 -30 -32 -28 -59 13 -132 103 -184 129
-393 74 -598 -18 -64 -24 -77 -38 -71 -99 42 -118 46 -187 42 -161 -10 -272
-124 -282 -289 -4 -68 -1 -84 22 -135 31 -67 32 -65 -69 -91 -96 -25 -304 -24
-395 0 -149 41 -307 143 -403 262 -58 72 -130 215 -154 305 -24 89 -24 291 1
379 86 316 342 538 668 581 151 20 340 -18 470 -95 73 -43 90 -48 121 -34 24
11 47 46 47 73 0 55 -173 149 -355 192 -105 25 -296 23 -410 -5 -338 -81 -606
-351 -692 -697 -26 -105 -24 -313 5 -427 80 -323 326 -578 647 -672 170 -50
388 -44 560 15 32 11 60 20 61 20 4 0 95 -153 119 -200 l16 -31 -338 3 c-328
4 -341 5 -436 31 -353 95 -630 350 -752 690 -210 588 124 1238 725 1411 120
34 237 46 451 46 205 0 221 4 235 62 5 22 0 33 -24 58 l-30 30 -199 -1 c-109
-1 -231 -5 -271 -10z"/>
<path d="M3999 4109 c-29 -11 -49 -46 -49 -87 0 -23 -9 -32 -56 -56 -128 -67
-179 -231 -109 -351 35 -61 109 -107 273 -170 93 -36 122 -68 122 -134 0 -53
-25 -99 -73 -135 -44 -33 -164 -29 -234 7 -62 32 -96 34 -123 7 -30 -30 -26
-76 10 -110 33 -31 125 -70 165 -70 22 0 25 -4 25 -40 0 -30 7 -47 25 -65 52
-53 125 -15 125 66 0 36 3 39 53 62 110 50 179 160 179 283 -1 126 -68 212
-204 262 -160 60 -228 105 -228 154 0 38 31 86 67 103 47 23 129 16 170 -13
63 -44 133 -17 133 52 0 41 -39 76 -117 106 -37 14 -49 23 -51 41 -6 54 -14
69 -42 84 -16 8 -30 15 -32 14 -2 0 -15 -5 -29 -10z"/>
<path d="M1485 3919 c-17 -5 -82 -62 -165 -144 l-135 -135 -70 71 c-82 83
-109 99 -167 99 -40 0 -46 -4 -155 -113 -109 -109 -113 -115 -113 -155 0 -24
6 -55 14 -70 8 -15 92 -104 188 -198 195 -192 225 -211 322 -201 30 3 67 12
82 20 16 9 138 125 272 259 l242 244 0 45 c0 54 -11 72 -109 172 -99 102 -143
124 -206 106z m98 -217 l57 -58 -213 -212 c-192 -191 -216 -212 -246 -212 -30
0 -51 17 -190 155 l-156 154 60 61 59 60 76 -74 c93 -91 116 -106 159 -106 31
0 49 14 180 145 80 80 148 145 151 145 3 0 31 -26 63 -58z"/>
<path d="M2971 3854 c-38 -49 -29 -68 81 -180 l102 -104 -391 0 -392 0 -20
-26 c-26 -33 -27 -65 -2 -95 l19 -24 393 -3 392 -3 -101 -103 c-108 -109 -119
-133 -84 -175 9 -11 32 -24 50 -27 33 -7 38 -2 213 172 162 163 179 183 179
214 0 31 -17 50 -173 207 -160 160 -176 173 -209 173 -28 0 -42 -7 -57 -26z"/>
</g>
</svg>
