<?xml version="1.0" standalone="no"?>
<!DOCTYPE svg PUBLIC "-//W3C//DTD SVG 20010904//EN"
 "http://www.w3.org/TR/2001/REC-SVG-20010904/DTD/svg10.dtd">
<svg version="1.0" xmlns="http://www.w3.org/2000/svg"
 width="512.000000pt" height="512.000000pt" viewBox="0 0 512.000000 512.000000"
 preserveAspectRatio="xMidYMid meet">

<g transform="translate(0.000000,512.000000) scale(0.100000,-0.100000)"
fill="#000000" stroke="none">
<path d="M2120 4851 c-169 -36 -250 -161 -250 -388 l0 -72 -352 -3 c-342 -3
-355 -4 -411 -26 -112 -45 -197 -134 -240 -250 -18 -50 -21 -85 -25 -272 -2
-131 0 -239 7 -275 23 -127 109 -248 212 -301 l49 -24 0 -564 c0 -367 4 -573
10 -593 10 -28 45 -53 74 -53 7 0 25 9 40 21 l26 20 0 560 c0 441 3 559 13
559 6 0 40 -7 75 -15 180 -43 779 -125 909 -125 8 0 12 -46 15 -154 3 -168 8
-183 72 -230 26 -20 40 -21 299 -21 269 0 272 0 305 23 56 40 62 64 62 235 l0
153 138 13 c248 22 763 99 855 127 16 5 17 -29 17 -614 0 -576 1 -621 18 -641
9 -11 31 -24 49 -27 26 -5 37 -1 57 19 l26 26 0 644 0 643 46 22 c57 28 136
101 168 156 49 84 56 132 56 382 0 302 -13 351 -125 465 -48 49 -126 92 -196
108 -25 6 -189 11 -375 11 l-332 0 -4 123 c-3 102 -7 130 -26 168 -31 64 -85
117 -151 148 l-56 26 -510 2 c-280 0 -526 -2 -545 -6z m1066 -167 c60 -44 69
-67 72 -185 l4 -109 -616 0 -616 0 0 108 c0 87 4 112 19 135 21 33 52 56 89
67 15 5 251 8 524 7 484 -2 497 -3 524 -23z m920 -459 c61 -18 116 -62 152
-123 l27 -47 0 -250 c0 -238 -1 -252 -22 -291 -24 -45 -76 -94 -124 -120 -86
-44 -900 -174 -1090 -174 l-39 0 0 79 c0 65 -4 84 -23 112 -43 65 -62 69 -341
69 -228 0 -253 -2 -291 -20 -58 -28 -78 -68 -83 -168 l-5 -84 -91 6 c-276 21
-647 75 -898 131 -133 30 -190 61 -235 128 -47 69 -55 130 -51 355 4 221 12
256 80 324 75 75 57 72 593 78 264 3 910 6 1436 8 817 2 963 0 1005 -13z
m-1246 -1165 l0 -260 -215 0 -215 0 0 260 0 260 215 0 215 0 0 -260z"/>
<path d="M4479 1939 c-59 -9 -96 -28 -189 -99 -110 -84 -215 -151 -328 -208
-111 -57 -125 -70 -125 -112 0 -40 29 -70 68 -70 62 0 342 162 499 288 86 69
127 77 202 39 73 -37 92 -68 79 -133 -6 -36 -107 -139 -548 -562 -496 -474
-674 -579 -1086 -636 -262 -37 -437 -13 -641 89 -180 90 -350 146 -545 180
-116 21 -351 21 -466 1 -131 -24 -335 -100 -366 -138 -26 -31 -25 -64 2 -96
34 -40 59 -41 135 -2 301 152 724 123 1160 -80 282 -131 444 -152 790 -104
320 44 459 106 725 319 203 163 778 699 913 851 59 65 82 124 82 203 0 168
-173 297 -361 270z"/>
<path d="M1535 1913 c-131 -18 -285 -86 -368 -163 -33 -30 -81 -86 -107 -125
-27 -40 -72 -93 -102 -120 -50 -45 -53 -47 -56 -24 -1 13 -7 41 -12 61 -16 55
-42 60 -328 56 -242 -3 -244 -3 -263 -27 -18 -22 -19 -44 -19 -366 l0 -344 26
-20 c35 -28 69 -26 99 4 l25 24 0 291 0 291 153 -3 152 -3 0 -515 0 -515 -152
-3 -153 -3 0 69 c0 55 -4 75 -21 96 -26 33 -79 36 -109 6 -18 -18 -20 -33 -20
-144 0 -107 3 -127 19 -147 l19 -24 266 0 c241 0 267 2 283 18 17 16 18 54 23
501 l5 484 64 48 c95 71 161 139 220 227 82 123 186 185 351 212 259 41 485
-2 921 -178 374 -152 628 -229 959 -293 200 -39 248 -58 281 -111 26 -42 29
-116 5 -141 -19 -22 -84 -38 -221 -53 -192 -22 -590 10 -844 67 -62 14 -124
23 -137 20 -51 -13 -70 -68 -39 -113 18 -26 158 -61 375 -95 125 -19 185 -22
435 -22 310 0 398 10 484 53 104 53 147 190 101 315 -26 68 -99 148 -160 175
-25 10 -119 31 -208 45 -316 51 -489 103 -945 285 -441 176 -583 212 -831 210
-78 -1 -154 -4 -171 -6z"/>
</g>
</svg>
