<?xml version="1.0" encoding="utf-8"?>
<!-- Generator: Adobe Illustrator 28.1.0, SVG Export Plug-In . SVG Version: 6.00 Build 0)  -->
<svg version="1.1" id="Lager_1" xmlns="http://www.w3.org/2000/svg" xmlns:xlink="http://www.w3.org/1999/xlink" x="0px" y="0px"
	 viewBox="0 0 282 268.4" style="enable-background:new 0 0 282 268.4;" xml:space="preserve">
<style type="text/css">
	.st0{fill:#00692F;}
	.st1{fill:#C2A94B;}
	.st2{fill:#FFFFFF;}
</style>
<g>
	<g>
		<circle class="st0" cx="141.3" cy="131.7" r="92.4"/>
		<g>
			<g>
				<path class="st1" d="M123.3,254.2c-2.2,1.4-4,3.5-5.5,5.5c-1.4,2.1-2.5,4.2-3.2,5.9c-0.7,1.6-1,2.8-1,2.8
					c2.3-0.2,4.4-0.7,6.1-1.3c1.8-0.6,3.3-1.4,4.5-2.2c2.5-1.7,4.1-3.7,5.2-5.6c1-1.9,1.5-3.6,1.7-4.9c0.2-1.3,0.2-2.1,0.2-2.1
					C128.2,252,125.5,252.9,123.3,254.2z"/>
			</g>
			<g>
				<path class="st1" d="M125.8,236.9c-1.7-1.4-3.4-2.2-4.7-3c-1.3-0.7-2.2-1-2.2-1c0,4,0.8,7.1,2,9.5c1.2,2.4,2.8,4,4.4,5.2
					c1.6,1.2,3.2,1.7,4.3,2c1.2,0.3,1.9,0.4,1.9,0.4c0.6-3.2-0.1-5.8-1.2-8C129.2,239.9,127.5,238.3,125.8,236.9z"/>
			</g>
			<g>
				<path class="st1" d="M115.6,250.6c-1.6-0.3-3.1-0.5-4.5-0.3c-1.4,0.1-2.7,0.6-3.9,1.1c-2.4,1.1-4.4,2.8-6.1,4.7
					c-1.7,1.9-3,3.9-3.9,5.4c-0.9,1.5-1.4,2.6-1.4,2.6c9.4,0.3,14.4-3.5,16.9-6.8c1.3-1.7,2-3.4,2.4-4.6
					C115.6,251.4,115.6,250.6,115.6,250.6z"/>
			</g>
			<g>
				<path class="st1" d="M107.8,231c-1.2-0.9-2-1.3-2-1.3c-1,8,1.5,12.7,4.3,15.4c1.4,1.3,2.9,2.1,4,2.6c1.1,0.5,1.9,0.6,1.9,0.6
					c1-3.1,0.7-5.8-0.1-8c-0.9-2.3-2.3-4.2-3.8-5.7C110.6,233,109,231.8,107.8,231z"/>
			</g>
			<g>
				<path class="st1" d="M99.5,248.7c0.6-1.2,0.8-1.9,0.8-1.9c-3.1-1.1-5.8-1.2-8.3-0.3c-2.5,0.8-4.8,2.2-6.7,3.9
					c-1.9,1.6-3.5,3.5-4.6,4.9c-1.1,1.4-1.7,2.4-1.7,2.4c4.6,0.7,8.3,0.4,11.2-0.6c2.9-0.9,4.9-2.4,6.5-3.9
					C98,251.4,98.9,249.9,99.5,248.7z"/>
			</g>
			<g>
				<path class="st1" d="M95.1,226.3c-0.6-0.5-1-0.9-1.3-1.1c-0.3-0.3-0.5-0.4-0.5-0.4c-0.5,1.9-0.8,3.7-0.9,5.3
					c-0.1,1.6,0,3,0.3,4.4c0.5,2.6,1.6,4.7,2.8,6.2c1.2,1.5,2.6,2.6,3.6,3.1c1,0.6,1.8,0.8,1.8,0.8c1.4-2.9,1.5-5.6,0.9-8
					c-0.6-2.3-1.7-4.5-3-6.2C97.6,228.7,96.2,227.2,95.1,226.3z"/>
			</g>
			<g>
				<path class="st1" d="M84.5,242.7c0.7-1.1,1-1.8,1-1.8c-1.4-0.8-2.9-1.2-4.2-1.5c-1.4-0.2-2.7-0.2-4,0c-2.6,0.5-5,1.6-7.2,2.9
					c-2.1,1.4-4,2.9-5.2,4.2c-1.3,1.2-2,2.2-2,2.2c2.3,0.7,4.3,1,6.1,1.2c1.9,0.1,3.6,0,5-0.3c3-0.5,5.2-1.8,6.9-3.1
					C82.6,245.2,83.7,243.8,84.5,242.7z"/>
			</g>
			<g>
				<path class="st1" d="M86.3,224.4c-1.1-1.8-2.2-3.5-3.2-4.6c-0.5-0.6-0.9-1-1.2-1.3c-0.3-0.3-0.5-0.5-0.5-0.5
					c-1.6,3.7-2,6.8-1.9,9.5c0.1,1.3,0.3,2.6,0.7,3.6c0.4,1.1,0.8,2,1.3,2.8c0.5,0.8,1.1,1.6,1.6,2.2c0.6,0.6,1.1,1,1.6,1.4
					c1,0.7,1.6,1.1,1.6,1.1c1.8-2.7,2.2-5.4,2-7.8c-0.1-1.2-0.4-2.3-0.8-3.4C87.3,226.4,86.8,225.4,86.3,224.4z"/>
			</g>
			<g>
				<path class="st1" d="M70.4,234.7c0.8-1,1.2-1.7,1.2-1.7c-1.3-1-2.6-1.6-4-2c-1.3-0.4-2.6-0.6-4-0.5c-1.3,0-2.6,0.3-3.9,0.6
					c-1.3,0.3-2.5,0.8-3.6,1.3c-2.3,1.1-4.3,2.4-5.7,3.4c-1.4,1.1-2.3,1.9-2.3,1.9c2.1,0.9,4.1,1.6,5.9,2c1.8,0.4,3.5,0.5,5,0.4
					c3-0.1,5.4-1.1,7.3-2.1C68.2,237,69.5,235.7,70.4,234.7z"/>
			</g>
			<g>
				<path class="st1" d="M72.1,211.9c-0.8-1.2-1.4-1.9-1.4-1.9c-4,6.9-3.6,12.3-2,15.9c0.8,1.8,1.8,3.1,2.7,4
					c0.8,0.9,1.5,1.3,1.5,1.3c2.1-2.5,2.9-5.1,3-7.5c0.1-2.4-0.5-4.7-1.3-6.7c-0.4-1-0.8-1.9-1.3-2.7
					C72.9,213.3,72.5,212.5,72.1,211.9z"/>
			</g>
			<g>
				<path class="st1" d="M57.4,225c1-0.9,1.5-1.5,1.5-1.5c-2.3-2.3-4.9-3.3-7.5-3.6c-2.6-0.3-5.3,0.2-7.7,1
					c-2.4,0.7-4.6,1.8-6.1,2.6c-1.6,0.9-2.5,1.5-2.5,1.5c3.9,2.5,7.5,3.5,10.5,3.8c3,0.2,5.5-0.3,7.5-1.1
					C55,226.9,56.5,225.9,57.4,225z"/>
			</g>
			<g>
				<path class="st1" d="M61.1,200.5c-2.4,3.2-3.7,6.1-4.3,8.7c-0.6,2.6-0.3,4.9,0.2,6.8c0.5,1.9,1.4,3.3,2.1,4.3
					c0.7,1,1.3,1.5,1.3,1.5c2.4-2.2,3.6-4.6,4-7c0.4-2.4,0.1-4.7-0.4-6.8c-0.5-2.1-1.3-3.9-1.9-5.2
					C61.6,201.3,61.1,200.5,61.1,200.5z"/>
			</g>
			<g>
				<path class="st1" d="M41.2,215.8c2-0.5,3.6-1.4,4.7-2.2c1.1-0.7,1.6-1.3,1.6-1.3c-1-1.3-2.1-2.3-3.3-3c-1.2-0.7-2.4-1.2-3.7-1.5
					c-2.5-0.6-5.3-0.5-7.8-0.1c-2.5,0.4-4.8,1.2-6.4,1.8c-1.7,0.6-2.7,1.2-2.7,1.2c0.9,0.8,1.8,1.4,2.6,2c0.9,0.6,1.7,1.1,2.6,1.5
					c1.7,0.8,3.2,1.4,4.7,1.7C36.7,216.5,39.2,216.3,41.2,215.8z"/>
			</g>
			<g>
				<path class="st1" d="M48.2,209.1c0.6,1.1,1.1,1.6,1.1,1.6c2.7-1.8,4.1-4.1,4.9-6.4c0.8-2.3,0.8-4.7,0.5-6.8
					c-0.2-2.2-0.8-4-1.1-5.4c-0.4-1.4-0.8-2.3-0.8-2.3c-2.8,2.8-4.5,5.5-5.4,8.1c-0.9,2.5-0.9,4.8-0.7,6.8
					C47,206.5,47.7,208.1,48.2,209.1z"/>
			</g>
			<g>
				<path class="st1" d="M31.1,202.3c2.1-0.3,3.8-0.9,5-1.5c1.2-0.6,1.8-1.1,1.8-1.1c-0.9-1.4-1.8-2.5-2.9-3.4
					c-1.1-0.9-2.3-1.5-3.5-2c-2.4-1-5.1-1.2-7.7-1.1c-2.6,0.1-4.9,0.5-6.6,0.9c-1.7,0.4-2.8,0.8-2.8,0.8
					C20.8,201.9,26.9,202.8,31.1,202.3z"/>
			</g>
			<g>
				<path class="st1" d="M39.8,198.4c2.9-1.5,4.6-3.5,5.7-5.7c1.1-2.2,1.4-4.6,1.4-6.7c0.1-2.2-0.1-4.1-0.4-5.5
					c-0.2-1.5-0.5-2.4-0.5-2.4c-6.4,4.8-8.1,10-8,13.9c0.1,1.9,0.5,3.6,0.9,4.7C39.3,197.8,39.8,198.4,39.8,198.4z"/>
			</g>
			<g>
				<path class="st1" d="M22.8,187.7c2.1,0,3.9-0.4,5.1-0.8c1.2-0.4,1.9-0.8,1.9-0.8c-1.4-3-3.2-5-5.6-6.2c-2.3-1.3-4.9-1.9-7.4-2.1
					c-2.5-0.2-5-0.1-6.7,0.1c-1.8,0.2-2.9,0.4-2.9,0.4c2.7,3.8,5.5,6.2,8.2,7.6C18.2,187.2,20.7,187.7,22.8,187.7z"/>
			</g>
			<g>
				<path class="st1" d="M32,185c3.1-1.1,5.1-2.9,6.4-4.9c1.3-2,2-4.3,2.3-6.4c0.3-2.1,0.4-4.1,0.3-5.5c0-0.7-0.1-1.3-0.1-1.7
					c0-0.4-0.1-0.7-0.1-0.7c-1.7,1-3.2,2-4.4,3.1c-1.2,1.1-2.2,2.2-2.9,3.2c-1.5,2.2-2.3,4.4-2.4,6.3c-0.2,1.9,0,3.6,0.3,4.8
					C31.6,184.3,32,185,32,185z"/>
			</g>
			<g>
				<path class="st1" d="M16.6,172c2.1,0.3,3.9,0.1,5.2-0.1c1.3-0.2,2-0.6,2-0.6c-0.4-1.6-1.1-2.9-1.9-4.1c-0.8-1.1-1.7-2.1-2.8-2.9
					c-2.2-1.5-4.6-2.5-7.1-3.1c-2.5-0.6-4.9-0.8-6.7-0.8c-1.8-0.1-2.9,0.1-2.9,0.1c1.1,2.1,2.3,3.8,3.4,5.2c1.2,1.4,2.5,2.5,3.7,3.4
					C12,170.9,14.5,171.7,16.6,172z"/>
			</g>
			<g>
				<path class="st1" d="M26,170.6c3.2-0.6,5.4-2.2,7-4c0.8-0.9,1.4-1.9,1.9-3c0.5-1,0.9-2.1,1.2-3.1c0.6-2,0.9-4,1.1-5.5
					c0.1-0.7,0.1-1.3,0.1-1.7c0-0.4,0-0.7,0-0.7c-3.7,1.5-6.3,3.3-8.1,5.3c-0.9,1-1.6,2-2.2,3c-0.5,1-0.9,2-1.1,2.9
					c-0.5,1.9-0.5,3.6-0.3,4.8C25.8,169.8,26,170.6,26,170.6z"/>
			</g>
			<g>
				<path class="st1" d="M12.5,155.7c2,0.6,3.8,0.6,5.1,0.6c1.3-0.1,2.1-0.3,2.1-0.3c-0.2-1.6-0.7-3-1.3-4.3
					c-0.7-1.2-1.4-2.3-2.4-3.2c-1.9-1.8-4.3-3.1-6.6-4c-2.4-0.9-4.7-1.4-6.5-1.7c-1.8-0.3-2.9-0.3-2.9-0.3
					C3.2,151.2,8.5,154.5,12.5,155.7z"/>
			</g>
			<g>
				<path class="st1" d="M29.5,152.4c1.8-1.6,3-3.6,3.9-5.6c0.9-2,1.4-3.8,1.8-5.3c0.4-1.4,0.4-2.4,0.4-2.4c-3.9,1-6.7,2.4-8.8,4.2
					c-2.1,1.7-3.3,3.7-4,5.5c-0.8,1.8-0.9,3.5-1,4.7c0,1.2,0.1,1.9,0.1,1.9C25.3,155.3,27.7,154.1,29.5,152.4z"/>
			</g>
			<g>
				<path class="st1" d="M10.6,138.9c1.9,0.8,3.8,1.1,5,1.2c1.3,0.1,2.1,0,2.1,0c-0.1-1.6-0.2-3.1-0.7-4.4c-0.5-1.3-1.2-2.5-2-3.5
					c-1.6-2.1-3.8-3.6-6.1-4.9c-2.2-1.2-4.5-2-6.2-2.5c-1.7-0.5-2.9-0.7-2.9-0.7C2,133.3,6.8,137.3,10.6,138.9z"/>
			</g>
			<g>
				<path class="st1" d="M20.1,140c3.3,0.2,5.8-0.7,7.8-2c2-1.4,3.5-3.2,4.6-5c1.2-1.8,1.9-3.6,2.5-5c0.6-1.4,0.8-2.3,0.8-2.3
					c-4,0.5-7,1.5-9.3,3c-2.2,1.4-3.8,3.2-4.7,4.9c-0.9,1.7-1.4,3.3-1.6,4.5c-0.1,0.6-0.1,1.1-0.1,1.4C20.1,139.8,20.1,140,20.1,140
					z"/>
			</g>
			<g>
				<path class="st1" d="M11,122.1c1.8,1.1,3.6,1.6,4.8,1.9c1.3,0.3,2.1,0.3,2.1,0.3c0.1-0.8,0.1-1.6,0.1-2.3c0-0.7-0.1-1.4-0.2-2.1
					c-0.3-1.4-0.8-2.6-1.5-3.7c-1.3-2.3-3.3-4.1-5.4-5.6c-2.1-1.5-4.2-2.6-5.8-3.3c-1.6-0.7-2.7-1.1-2.7-1.1
					C3.1,115.4,7.4,120,11,122.1z"/>
			</g>
			<g>
				<path class="st1" d="M20.2,124.4c3.2,0.7,5.8,0.1,8-1c2.2-1.1,3.9-2.7,5.3-4.4c1.4-1.6,2.4-3.3,3.1-4.6c0.7-1.3,1.1-2.1,1.1-2.1
					c-8-0.2-12.5,2.8-14.9,5.9c-1.1,1.6-1.8,3.1-2.2,4.3C20.3,123.7,20.2,124.4,20.2,124.4z"/>
			</g>
			<g>
				<path class="st1" d="M8.1,97.2c0.3,0.8,0.5,1.6,0.9,2.2c1.3,2.8,2.9,4.7,4.6,6c1.7,1.3,3.3,2.1,4.6,2.5c1.2,0.4,2,0.5,2,0.5
					c0.2-0.8,0.3-1.6,0.4-2.3c0.1-0.7,0.1-1.4,0-2.1c-0.1-1.4-0.5-2.7-1-3.9c-1-2.4-2.7-4.5-4.5-6.3c-1.9-1.8-3.8-3.1-5.3-4.1
					c-1.5-0.9-2.6-1.4-2.6-1.4c-0.2,2.3,0,4.4,0.3,6.3C7.6,95.6,7.8,96.4,8.1,97.2z"/>
			</g>
			<g>
				<path class="st1" d="M23,107.1c-0.5,1.1-0.6,1.8-0.6,1.8c3.1,1.1,5.8,0.9,8,0.1c2.3-0.8,4.3-2.2,5.8-3.6c1.6-1.4,2.9-3,3.7-4.2
					c0.9-1.2,1.4-2,1.4-2c-7.9-1.3-12.8,1.1-15.6,3.9C24.4,104.6,23.5,106,23,107.1z"/>
			</g>
			<g>
				<path class="st1" d="M14.5,82.8c0.9,2.9,2.2,5,3.8,6.6c1.5,1.5,3,2.5,4.2,3.1c1.2,0.6,1.9,0.8,1.9,0.8c0.3-0.8,0.5-1.5,0.7-2.2
					c0.2-0.7,0.3-1.4,0.3-2.1c0.1-1.4-0.1-2.7-0.5-4c-0.7-2.5-2.1-4.8-3.7-6.8c-1.6-2-3.3-3.6-4.7-4.8c-1.4-1.1-2.3-1.8-2.3-1.8
					c-0.5,2.3-0.6,4.4-0.5,6.2C13.8,79.6,14.1,81.3,14.5,82.8z"/>
			</g>
			<g>
				<path class="st1" d="M27.5,92.2c-0.6,1-0.9,1.7-0.9,1.7c2.9,1.5,5.6,1.6,8,1.2c2.4-0.5,4.5-1.6,6.2-2.8c1.8-1.2,3.2-2.6,4.2-3.6
					c1-1,1.6-1.8,1.6-1.8c-7.7-2.3-12.8-0.6-15.9,1.8C29.2,89.9,28.1,91.2,27.5,92.2z"/>
			</g>
			<g>
				<path class="st1" d="M28.9,77.6c1.1,0.7,1.8,1.1,1.8,1.1c0.8-1.4,1.3-2.8,1.6-4.2c0.3-1.4,0.2-2.7,0.1-4
					c-0.3-2.6-1.4-5.1-2.7-7.3c-1.3-2.2-2.8-4-4-5.3c-1.2-1.3-2.1-2.1-2.1-2.1c-3,8.9-0.9,14.7,1.6,18.1
					C26.5,75.7,27.8,76.8,28.9,77.6z"/>
			</g>
			<g>
				<path class="st1" d="M47.1,79.9c2-1,3.5-2.1,4.7-3c1.2-0.9,1.8-1.6,1.8-1.6c-3.6-1.6-6.8-2.2-9.5-2.2c-2.6,0.1-4.9,0.8-6.5,1.8
					c-1.7,1-2.9,2.2-3.7,3.1c-0.7,0.9-1.1,1.6-1.1,1.6c2.7,1.9,5.3,2.4,7.7,2.2C43,81.7,45.2,80.9,47.1,79.9z"/>
			</g>
			<g>
				<path class="st1" d="M37.3,63.7c1,0.9,1.6,1.3,1.6,1.3c1-1.3,1.7-2.6,2.1-3.9c0.4-1.3,0.6-2.7,0.6-4c0-2.6-0.8-5.2-1.8-7.6
					c-1-2.3-2.2-4.4-3.3-5.8c-1-1.5-1.8-2.3-1.8-2.3c-4.1,8.4-2.8,14.5-0.8,18.2C35.1,61.5,36.3,62.8,37.3,63.7z"/>
			</g>
			<g>
				<path class="st1" d="M48.2,69.5c2.5,0.2,4.8-0.3,6.8-1.1c2.1-0.7,3.7-1.7,5-2.4c1.3-0.7,2-1.3,2-1.3c-3.4-2.1-6.4-3.1-9.1-3.4
					c-2.6-0.2-4.9,0.2-6.7,0.9c-1.8,0.8-3.1,1.8-4,2.6c-0.9,0.8-1.3,1.5-1.3,1.5C43.2,68.5,45.8,69.4,48.2,69.5z"/>
			</g>
			<g>
				<path class="st1" d="M50.9,53.8c-0.2,0.2-0.4,0.4-0.4,0.4c2.1,2.5,4.5,3.7,6.9,4.2c2.4,0.5,4.7,0.3,6.9-0.2
					c2.1-0.4,3.9-1.2,5.3-1.7c1.3-0.6,2.2-1,2.2-1c-3.1-2.5-6-3.9-8.6-4.6c-2.6-0.6-4.9-0.4-6.8,0c-1.9,0.5-3.3,1.3-4.3,2
					C51.5,53.2,51.2,53.5,50.9,53.8z"/>
			</g>
			<g>
				<path class="st1" d="M164.2,259.7c-1.4-2.1-3.2-4.2-5.5-5.5c-2.2-1.3-4.9-2.2-8.1-1.8c0,0,0,0.8,0.2,2.1c0.2,1.3,0.7,3,1.7,4.9
					c1,1.8,2.6,3.8,5.2,5.6c1.3,0.8,2.8,1.6,4.5,2.2c1.8,0.7,3.8,1.1,6.1,1.3c0,0-0.3-1.1-1-2.8C166.7,264,165.6,261.8,164.2,259.7z
					"/>
			</g>
			<g>
				<path class="st1" d="M156.8,247.7c1.6-1.2,3.2-2.8,4.4-5.2c1.2-2.4,2-5.5,2-9.5c0,0-0.9,0.3-2.2,1c-1.3,0.7-3,1.6-4.7,3
					c-1.7,1.4-3.4,3-4.5,5.1c-1.1,2.2-1.8,4.8-1.2,8c0,0,0.8,0,1.9-0.4C153.6,249.4,155.2,248.8,156.8,247.7z"/>
			</g>
			<g>
				<path class="st1" d="M180.8,256.1c-1.7-1.9-3.8-3.7-6.1-4.7c-1.2-0.5-2.5-1-3.9-1.1c-1.4-0.2-2.8,0-4.5,0.3c0,0,0.1,0.8,0.5,2
					c0.4,1.2,1.1,2.9,2.4,4.6c2.5,3.3,7.5,7.1,16.9,6.8c0,0-0.5-1.1-1.4-2.6C183.9,260,182.6,258,180.8,256.1z"/>
			</g>
			<g>
				<path class="st1" d="M169.9,234.6c-1.5,1.5-2.9,3.4-3.8,5.7c-0.9,2.3-1.1,4.9-0.1,8c0,0,0.7-0.1,1.9-0.6c1.1-0.5,2.6-1.3,4-2.6
					c2.9-2.7,5.4-7.5,4.3-15.4c0,0-0.8,0.4-2,1.3C173,231.8,171.4,233,169.9,234.6z"/>
			</g>
			<g>
				<path class="st1" d="M196.9,250.2c-1.9-1.7-4.2-3.1-6.7-3.9c-2.5-0.8-5.2-0.8-8.3,0.3c0,0,0.2,0.8,0.8,1.9
					c0.6,1.2,1.5,2.7,3,4.3c1.5,1.6,3.6,3,6.5,3.9c2.9,1,6.6,1.3,11.2,0.6c0,0-0.6-1-1.7-2.4C200.4,253.7,198.8,251.9,196.9,250.2z"
					/>
			</g>
			<g>
				<path class="st1" d="M188.2,225.1c-0.3,0.3-0.8,0.6-1.3,1.1c-1.1,0.9-2.4,2.4-3.7,4.1c-1.3,1.7-2.4,3.8-3,6.2
					c-0.5,2.3-0.5,5.1,0.9,8c0,0,0.7-0.2,1.8-0.8c1.1-0.6,2.4-1.6,3.6-3.1c1.2-1.5,2.3-3.6,2.8-6.2c0.3-1.3,0.4-2.8,0.3-4.4
					c-0.1-1.6-0.4-3.4-0.9-5.3C188.8,224.7,188.6,224.9,188.2,225.1z"/>
			</g>
			<g>
				<path class="st1" d="M217.2,246.5c-1.3-1.2-3.1-2.8-5.2-4.2c-2.1-1.4-4.6-2.5-7.2-2.9c-1.3-0.2-2.6-0.2-4,0
					c-1.4,0.2-2.8,0.7-4.2,1.5c0,0,0.3,0.7,1,1.8c0.7,1.1,1.8,2.5,3.5,3.8c1.7,1.3,4,2.5,6.9,3.1c1.5,0.3,3.2,0.4,5,0.3
					c1.8-0.2,3.9-0.5,6.1-1.2C219.2,248.7,218.5,247.8,217.2,246.5z"/>
			</g>
			<g>
				<path class="st1" d="M198.9,219.9c-0.9,1.1-2.1,2.7-3.2,4.6c-0.5,0.9-1,2-1.4,3.1c-0.4,1.1-0.7,2.2-0.8,3.4
					c-0.2,2.4,0.2,5.1,2,7.8c0,0,0.7-0.3,1.6-1.1c0.5-0.4,1-0.8,1.6-1.4c0.5-0.6,1.1-1.3,1.6-2.2c0.5-0.8,1-1.8,1.3-2.8
					c0.4-1.1,0.6-2.3,0.7-3.6c0.1-2.7-0.3-5.8-1.9-9.5c0,0-0.2,0.2-0.5,0.5C199.8,218.9,199.4,219.3,198.9,219.9z"/>
			</g>
			<g>
				<path class="st1" d="M225.9,232.5c-1.1-0.5-2.4-1-3.6-1.3c-1.3-0.4-2.6-0.6-3.9-0.6c-1.3,0-2.6,0.1-4,0.5c-1.3,0.4-2.7,1-4,2
					c0,0,0.4,0.7,1.2,1.7c0.8,1,2.1,2.2,4,3.3c1.8,1.1,4.3,2,7.3,2.1c1.5,0.1,3.2,0,5-0.4c1.8-0.4,3.8-1,5.9-2c0,0-0.8-0.8-2.3-1.9
					C230.2,234.8,228.2,233.5,225.9,232.5z"/>
			</g>
			<g>
				<path class="st1" d="M208.7,214.1c-0.5,0.8-0.9,1.7-1.3,2.7c-0.8,2-1.4,4.3-1.3,6.7c0.1,2.4,0.9,5,3,7.5c0,0,0.6-0.4,1.5-1.3
					c0.8-0.9,1.9-2.1,2.7-4c1.6-3.5,2-9-2-15.9c0,0-0.6,0.7-1.4,1.9C209.6,212.5,209.1,213.3,208.7,214.1z"/>
			</g>
			<g>
				<path class="st1" d="M238.4,220.9c-2.4-0.7-5.1-1.2-7.7-1c-2.6,0.3-5.2,1.3-7.5,3.6c0,0,0.5,0.6,1.5,1.5c1,0.9,2.4,1.9,4.4,2.7
					c2,0.8,4.5,1.4,7.5,1.1c3-0.3,6.6-1.3,10.5-3.8c0,0-0.9-0.7-2.5-1.5C242.9,222.6,240.8,221.6,238.4,220.9z"/>
			</g>
			<g>
				<path class="st1" d="M219.9,202.6c-0.6,1.4-1.4,3.1-1.9,5.2c-0.5,2.1-0.8,4.4-0.4,6.8c0.4,2.4,1.6,4.9,4,7c0,0,0.6-0.5,1.3-1.5
					c0.7-1,1.6-2.4,2.1-4.3c0.5-1.9,0.8-4.2,0.2-6.8c-0.6-2.6-1.9-5.6-4.3-8.7C221,200.5,220.5,201.3,219.9,202.6z"/>
			</g>
			<g>
				<path class="st1" d="M249.2,207.7c-2.5-0.4-5.2-0.6-7.8,0.1c-1.3,0.3-2.5,0.8-3.7,1.5c-1.2,0.7-2.2,1.7-3.3,3
					c0,0,0.6,0.6,1.6,1.3c1.1,0.7,2.7,1.6,4.7,2.2c2,0.5,4.6,0.8,7.6,0.1c1.5-0.3,3-0.9,4.7-1.7c0.8-0.4,1.7-0.9,2.6-1.5
					c0.9-0.6,1.7-1.3,2.6-2c0,0-1-0.6-2.7-1.2C254,208.9,251.7,208.1,249.2,207.7z"/>
			</g>
			<g>
				<path class="st1" d="M232.7,210.8c0,0,0.5-0.5,1.1-1.6c0.6-1.1,1.2-2.6,1.6-4.5c0.3-2,0.2-4.3-0.7-6.8c-0.9-2.5-2.6-5.3-5.4-8.1
					c0,0-0.4,0.9-0.8,2.3c-0.4,1.4-1,3.3-1.1,5.4c-0.2,2.1-0.2,4.5,0.5,6.8C228.6,206.7,230,208.9,232.7,210.8z"/>
			</g>
			<g>
				<path class="st1" d="M258.2,193.2c-2.5-0.1-5.3,0.1-7.7,1.1c-1.2,0.5-2.4,1.1-3.5,2c-1.1,0.9-2,2-2.9,3.4c0,0,0.6,0.5,1.8,1.1
					c1.2,0.6,2.8,1.2,5,1.5c4.2,0.5,10.3-0.4,16.7-7.3c0,0-1.1-0.4-2.8-0.8C263.1,193.7,260.7,193.3,258.2,193.2z"/>
			</g>
			<g>
				<path class="st1" d="M242.2,198.4c0,0,0.4-0.6,0.9-1.7c0.4-1.1,0.9-2.8,0.9-4.7c0.1-3.9-1.6-9.1-8-13.9c0,0-0.3,0.9-0.5,2.4
					c-0.3,1.4-0.5,3.4-0.4,5.5c0,2.1,0.4,4.5,1.4,6.7C237.6,194.9,239.3,197,242.2,198.4z"/>
			</g>
			<g>
				<path class="st1" d="M265.2,177.7c-2.5,0.2-5.2,0.9-7.4,2.1c-2.4,1.2-4.2,3.2-5.6,6.2c0,0,0.7,0.4,1.9,0.8
					c1.2,0.4,3,0.8,5.1,0.8c2.2,0,4.6-0.5,7.3-1.9c2.7-1.4,5.5-3.8,8.2-7.6c0,0-1.1-0.3-2.9-0.4
					C270.1,177.5,267.7,177.4,265.2,177.7z"/>
			</g>
			<g>
				<path class="st1" d="M250.1,185c0,0,0.3-0.7,0.7-1.8c0.3-1.2,0.5-2.9,0.3-4.8c-0.2-1.9-0.9-4.1-2.4-6.3
					c-0.8-1.1-1.7-2.2-2.9-3.2c-1.2-1.1-2.7-2.1-4.4-3.1c0,0,0,0.2-0.1,0.7c0,0.4-0.1,1-0.1,1.7c-0.1,1.4,0,3.4,0.3,5.5
					c0.3,2.1,1,4.4,2.3,6.4C245,182.1,247,183.9,250.1,185z"/>
			</g>
			<g>
				<path class="st1" d="M276.7,160.5c-1.8,0-4.2,0.3-6.7,0.8c-2.5,0.6-4.9,1.6-7.1,3.1c-1.1,0.8-2,1.7-2.8,2.9
					c-0.8,1.1-1.5,2.5-1.9,4.1c0,0,0.7,0.3,2,0.6c1.3,0.2,3.1,0.4,5.2,0.1c2.1-0.3,4.6-1.1,7-2.8c1.2-0.9,2.5-2,3.7-3.4
					c1.2-1.4,2.3-3.2,3.4-5.2C279.6,160.5,278.4,160.4,276.7,160.5z"/>
			</g>
			<g>
				<path class="st1" d="M256.4,168.6c0.2-1.2,0.2-2.9-0.3-4.8c-0.2-0.9-0.6-1.9-1.1-2.9c-0.5-1-1.3-2-2.2-3c-1.8-2-4.4-3.8-8.1-5.3
					c0,0,0,0.2,0,0.7c0,0.4,0,1,0.1,1.7c0.1,1.4,0.5,3.4,1.1,5.5c0.3,1,0.7,2.1,1.2,3.1c0.5,1,1.1,2,1.9,3c1.6,1.8,3.8,3.4,7,4
					C256,170.6,256.3,169.8,256.4,168.6z"/>
			</g>
			<g>
				<path class="st1" d="M272.6,144.5c-2.3,0.9-4.8,2.2-6.6,4c-1,0.9-1.7,2-2.4,3.2c-0.7,1.2-1.1,2.6-1.3,4.3c0,0,0.8,0.2,2.1,0.3
					c1.3,0.1,3.1,0,5.1-0.6c4.1-1.1,9.4-4.4,12.5-13.3c0,0-1.2,0-2.9,0.3C277.3,143,275,143.5,272.6,144.5z"/>
			</g>
			<g>
				<path class="st1" d="M260.1,153.5c-0.1-1.2-0.2-2.9-1-4.7c-0.8-1.8-1.9-3.7-4-5.5c-2.1-1.7-4.9-3.2-8.8-4.2c0,0,0.1,0.9,0.4,2.4
					c0.4,1.4,0.9,3.3,1.8,5.3c1,2,2.1,4,3.9,5.6c1.8,1.6,4.2,2.9,7.5,3C260,155.5,260.2,154.7,260.1,153.5z"/>
			</g>
			<g>
				<path class="st1" d="M273,127.4c-2.2,1.2-4.5,2.8-6.1,4.9c-0.8,1-1.5,2.2-2,3.5c-0.5,1.3-0.7,2.8-0.7,4.4c0,0,0.8,0.1,2.1,0
					c1.3-0.1,3.1-0.4,5-1.2c3.8-1.7,8.7-5.6,10.6-14.8c0,0-1.2,0.2-2.9,0.7C277.5,125.4,275.2,126.2,273,127.4z"/>
			</g>
			<g>
				<path class="st1" d="M262,140c0,0,0-0.2,0-0.5c0-0.3,0-0.8-0.1-1.4c-0.2-1.2-0.6-2.8-1.6-4.5c-1-1.7-2.5-3.5-4.7-4.9
					c-2.2-1.4-5.3-2.5-9.3-3c0,0,0.2,0.9,0.8,2.3c0.5,1.4,1.3,3.2,2.5,5c1.1,1.8,2.6,3.7,4.6,5C256.2,139.4,258.7,140.3,262,140z"/>
			</g>
			<g>
				<path class="st1" d="M265.8,116.1c-0.7,1.1-1.2,2.4-1.5,3.7c-0.1,0.7-0.2,1.4-0.2,2.1c0,0.7,0,1.5,0.1,2.3c0,0,0.8,0,2.1-0.3
					c1.3-0.3,3-0.8,4.8-1.9c3.6-2.2,7.8-6.7,8.6-16.1c0,0-1.1,0.4-2.7,1.1c-1.6,0.7-3.7,1.8-5.8,3.3
					C269.1,112,267.1,113.8,265.8,116.1z"/>
			</g>
			<g>
				<path class="st1" d="M244.4,112.3c0,0,0.4,0.9,1.1,2.1c0.7,1.3,1.7,3,3.1,4.6c1.3,1.7,3.1,3.3,5.3,4.4c2.1,1.1,4.8,1.7,8,1
					c0,0,0-0.8-0.4-1.9c-0.4-1.2-1-2.7-2.2-4.3C256.9,115.1,252.4,112.1,244.4,112.3z"/>
			</g>
			<g>
				<path class="st1" d="M262.5,100.2c-0.5,1.2-0.9,2.5-1,3.9c-0.1,0.7,0,1.4,0,2.1c0.1,0.7,0.2,1.5,0.4,2.3c0,0,0.8-0.1,2-0.5
					c1.2-0.4,2.9-1.2,4.6-2.5c1.7-1.3,3.3-3.2,4.6-6c0.3-0.7,0.6-1.4,0.9-2.2c0.2-0.8,0.4-1.7,0.6-2.6c0.3-1.8,0.5-3.9,0.3-6.3
					c0,0-1.1,0.5-2.6,1.4c-1.5,0.9-3.4,2.3-5.3,4.1C265.2,95.7,263.5,97.8,262.5,100.2z"/>
			</g>
			<g>
				<path class="st1" d="M256.3,103.2c-2.8-2.8-7.6-5.2-15.6-3.9c0,0,0.5,0.8,1.4,2c0.8,1.2,2.1,2.7,3.7,4.2
					c1.5,1.5,3.5,2.8,5.8,3.6c2.3,0.8,5,1,8-0.1c0,0-0.1-0.7-0.6-1.8C258.5,106,257.7,104.6,256.3,103.2z"/>
			</g>
			<g>
				<path class="st1" d="M256.6,88.9c0,0.7,0.1,1.4,0.3,2.1c0.2,0.7,0.4,1.5,0.7,2.2c0,0,0.8-0.2,1.9-0.8c1.2-0.6,2.7-1.6,4.2-3.1
					c1.5-1.6,2.9-3.6,3.8-6.6c0.5-1.5,0.7-3.1,0.8-5c0.1-1.9,0-4-0.5-6.2c0,0-1,0.6-2.3,1.8c-1.4,1.1-3.1,2.8-4.7,4.8
					c-1.6,2-3,4.3-3.7,6.8C256.7,86.2,256.5,87.5,256.6,88.9z"/>
			</g>
			<g>
				<path class="st1" d="M251.4,88.7c-3.1-2.4-8.3-4.1-15.9-1.8c0,0,0.6,0.8,1.6,1.8c1,1.1,2.4,2.4,4.2,3.6c1.7,1.2,3.9,2.3,6.2,2.8
					c2.4,0.5,5.1,0.3,8-1.2c0,0-0.2-0.7-0.9-1.7C253.9,91.2,252.9,89.9,251.4,88.7z"/>
			</g>
			<g>
				<path class="st1" d="M249.7,74.5c0.3,1.4,0.8,2.7,1.6,4.2c0,0,0.7-0.3,1.8-1.1c1.1-0.7,2.5-1.9,3.7-3.6
					c2.5-3.4,4.6-9.2,1.6-18.1c0,0-0.9,0.8-2.1,2.1c-1.2,1.3-2.7,3.2-4,5.3c-1.3,2.2-2.4,4.7-2.7,7.3
					C249.5,71.8,249.4,73.1,249.7,74.5z"/>
			</g>
			<g>
				<path class="st1" d="M244.5,75c-1.7-1-3.9-1.7-6.5-1.8c-2.7-0.1-5.9,0.5-9.5,2.2c0,0,0.7,0.7,1.8,1.6c1.2,0.9,2.7,2.1,4.7,3
					c1.9,1,4.1,1.8,6.6,2c2.4,0.2,5.1-0.3,7.7-2.2c0,0-0.3-0.7-1.1-1.6C247.4,77.1,246.2,76,244.5,75z"/>
			</g>
			<g>
				<path class="st1" d="M243.1,65c0,0,0.7-0.4,1.6-1.3c1-0.9,2.2-2.2,3.2-4.1c2-3.7,3.3-9.8-0.8-18.2c0,0-0.8,0.9-1.8,2.3
					c-1,1.5-2.3,3.5-3.3,5.8c-1,2.3-1.8,5-1.8,7.6c0,1.3,0.2,2.6,0.6,4C241.4,62.4,242.2,63.7,243.1,65z"/>
			</g>
			<g>
				<path class="st1" d="M229.2,61.4c-2.7,0.3-5.7,1.3-9.1,3.4c0,0,0.7,0.6,2,1.3c1.3,0.7,3,1.7,5,2.4c2,0.7,4.3,1.3,6.8,1.1
					c2.4-0.2,5-1,7.4-3.2c0,0-0.4-0.6-1.3-1.5c-0.9-0.8-2.3-1.8-4-2.6C234.1,61.6,231.8,61.1,229.2,61.4z"/>
			</g>
			<g>
				<path class="st1" d="M218.9,50.8c-2.6,0.6-5.5,2-8.6,4.6c0,0,0.8,0.5,2.2,1c1.4,0.5,3.2,1.3,5.3,1.7c2.1,0.4,4.4,0.7,6.9,0.2
					c2.4-0.5,4.8-1.7,6.9-4.2c0,0-0.1-0.1-0.4-0.4c-0.2-0.2-0.6-0.6-1.1-0.9c-1-0.7-2.5-1.5-4.3-2C223.8,50.4,221.5,50.2,218.9,50.8
					z"/>
			</g>
			<g>
				<path class="st1" d="M141,248.5c-1.7,0-3.1,1.4-3.1,3.1c0,1.7,1.4,3.1,3.1,3.1c1.7,0,3.1-1.4,3.1-3.1
					C144.1,249.9,142.7,248.5,141,248.5z"/>
			</g>
			<g>
				<path class="st1" d="M47.4,51.1c0.8,1,1.5,1.5,1.5,1.5c1.1-1.2,2.1-2.3,2.7-3.6c0.6-1.3,0.9-2.5,1.1-3.8
					c0.4-2.6-0.1-5.3-0.7-7.7c-0.7-2.4-1.7-4.6-2.5-6.2c-0.8-1.6-1.5-2.5-1.5-2.5c-5.2,7.8-4.7,14-3.2,17.9
					C45.5,48.6,46.5,50.1,47.4,51.1z"/>
			</g>
			<g>
				<path class="st1" d="M230.6,49c0.6,1.3,1.5,2.4,2.7,3.6c0,0,0.6-0.5,1.5-1.5c0.8-1,1.9-2.5,2.6-4.5c1.5-3.9,2-10.1-3.2-17.9
					c0,0-0.7,1-1.5,2.5c-0.8,1.6-1.8,3.8-2.5,6.2c-0.7,2.4-1.1,5.2-0.7,7.7C229.6,46.5,230,47.7,230.6,49z"/>
			</g>
			<g>
				<path class="st1" d="M73.5,31.3c-15.3,2.5-16.3,14.5-16.3,14.5C69.4,48.4,73.5,31.3,73.5,31.3z"/>
			</g>
			<g>
				<path class="st1" d="M224.7,45.6c0,0-1-12.1-16.3-14.5C208.4,31.1,212.5,48.1,224.7,45.6z"/>
			</g>
			<g>
				<path class="st1" d="M78.1,25.9l3.2-1.7l-1.5-2.8c-0.7-1.3-0.5-2.4,0.7-3.1c1.2-0.6,2.2-0.3,3,1.1c1.3,2.4,1.4,4.6,0.9,8.8
					c-0.6,7.2-0.1,9.8,1.6,13.1l0.6,1l10.3-5.6l-1.8-3.4l-6.4,3.5c-0.8-1.4-1.1-3.6-0.8-7.9c0.9-4.7,0.8-7.9-0.9-11
					c-1.7-3.2-4.5-4.9-8.3-2.9c-3.3,1.8-3.6,5.2-2.1,7.8L78.1,25.9z"/>
			</g>
			<g>
				<g>
					<path class="st1" d="M96.1,30.8c1.3,3.5,4.5,4.9,8,3.6c3.5-1.3,4.8-4.5,3.5-8l-5.7-14.7c-1.3-3.5-4.5-4.9-8-3.6
						c-3.4,1.3-4.8,4.5-3.5,8L96.1,30.8z M95.3,11.7c1.2-0.5,2.3,0.1,2.7,1.1l5.9,15.4c0.4,1,0,2.2-1.3,2.6
						c-1.2,0.5-2.3-0.1-2.7-1.1l-5.9-15.4C93.7,13.3,94.1,12.1,95.3,11.7z"/>
				</g>
			</g>
			<g>
				<g>
					<path class="st1" d="M109.7,25.8c0.9,3.6,3.8,5.5,7.4,4.6c3.6-0.9,5.4-3.8,4.5-7.5L118,7.6c-0.9-3.6-3.8-5.5-7.4-4.6
						c-3.6,0.9-5.4,3.8-4.5,7.5L109.7,25.8z M111.5,6.7c1.3-0.3,2.3,0.4,2.5,1.5l3.8,16.1c0.3,1.1-0.3,2.1-1.6,2.4
						c-1.2,0.3-2.2-0.4-2.5-1.5l-3.8-16.1C109.6,8,110.2,7,111.5,6.7z"/>
				</g>
			</g>
			<g>
				<g>
					<path class="st1" d="M123.9,22.6c0.4,3.7,3.1,5.9,6.7,5.6c3.7-0.4,5.9-3.1,5.5-6.8l-1.6-15.7c-0.4-3.7-3-5.9-6.7-5.6
						c-3.7,0.4-5.9,3.1-5.5,6.8L123.9,22.6z M128.1,3.9c1.3-0.1,2.2,0.7,2.3,1.8l1.7,16.4c0.1,1.1-0.6,2.1-1.9,2.2
						c-1.3,0.1-2.2-0.7-2.3-1.8l-1.7-16.4C126.2,5,126.9,4,128.1,3.9z"/>
				</g>
			</g>
			<g>
				
					<rect x="138.4" y="12.9" transform="matrix(1 -1.910520e-03 1.910520e-03 1 -2.739795e-02 0.2715)" class="st1" width="7.3" height="3.1"/>
			</g>
			<g>
				<path class="st1" d="M158.2,24.4l-7.3-0.7c0.2-1.6,1.1-3.6,3.8-7c3.4-3.4,5.1-6.1,5.5-9.6c0.4-3.6-0.9-6.6-5.2-7
					c-3.7-0.4-5.9,2.3-6.2,5.3l-0.3,3.3L152,9l0.3-3.1c0.1-1.5,0.9-2.3,2.3-2.2c1.3,0.1,2,1,1.8,2.6c-0.3,2.8-1.4,4.6-4.2,7.8
					c-4.5,5.6-5.6,8.1-6,11.7l-0.1,1.2l11.7,1.2L158.2,24.4z"/>
			</g>
			<g>
				<g>
					<path class="st1" d="M164.8,30.3c3.6,0.9,6.6-0.9,7.5-4.5l3.9-15.3c0.9-3.6-0.8-6.6-4.4-7.5c-3.6-0.9-6.6,0.9-7.5,4.5
						l-3.9,15.3C159.5,26.3,161.3,29.3,164.8,30.3z M164.2,24.1l4-16c0.3-1.1,1.3-1.7,2.5-1.4c1.3,0.3,1.8,1.4,1.6,2.5l-4,16
						c-0.3,1.1-1.3,1.7-2.6,1.4C164.5,26.2,164,25.1,164.2,24.1z"/>
				</g>
			</g>
			<g>
				<path class="st1" d="M181.7,20.7c-5.8,4.2-7.5,6.4-8.8,9.8l-0.4,1.1l11,4.1l1.4-3.6l-6.9-2.6c0.6-1.5,1.9-3.2,5.4-5.8
					c4.1-2.4,6.5-4.6,7.7-7.9c1.3-3.4,0.8-6.6-3.3-8.1c-3.5-1.3-6.3,0.7-7.3,3.5l-1.2,3.1l3.4,1.3l1.1-2.9c0.5-1.4,1.5-2,2.7-1.5
					c1.3,0.5,1.7,1.5,1.1,3C186.7,16.9,185.2,18.4,181.7,20.7z"/>
			</g>
			<g>
				<path class="st1" d="M194,26.7c0.7-0.8,1.8-1.2,2.8-0.7c0.9,0.5,1.1,1.4,0.6,2.4L194,35c-0.6,1.2-1.7,1.6-2.8,1
					c-1.1-0.6-1.4-1.7-0.7-2.9l1.1-2.1l-3.2-1.7l-1.3,2.4c-1.3,2.6-1,5.9,2.3,7.6c3.3,1.7,6.4,0.7,8.1-2.4l3.8-7.2
					c1.2-2.2,0.6-4.6-1.5-5.7c-1.6-0.8-3-0.8-4.2-0.2l3.7-6.2l4.2,2.2c1.6,0.8,2.7,0.3,4.2-2.1l-9.5-5l-7,12L194,26.7z"/>
			</g>
			<g>
				<g>
					<path class="st1" d="M142.5,44.9c-47.8-0.6-87.3,37.8-88,85.6c-0.6,47.8,37.8,87.3,85.6,87.9c47.8,0.6,87.3-37.8,88-85.6
						C228.7,85,190.3,45.5,142.5,44.9z M194.2,186c-14.5,14.1-33.7,21.8-53.9,21.5c-20.2-0.3-39.2-8.4-53.3-22.9
						c-14.1-14.5-21.7-33.7-21.5-53.9c0.3-20.2,8.4-39.2,22.9-53.3c30-29.2,78.1-28.5,107.2,1.5c14.1,14.5,21.7,33.7,21.5,53.9
						C216.8,152.9,208.7,171.9,194.2,186z"/>
				</g>
			</g>
		</g>
		<path class="st2" d="M161.5,161.4c-0.7,6.8-7.4,10.8-18.2,10.7c-9-0.1-16.9-2.6-24.3-6.7c-8.1-4.5-18.2-2.9-24.3,4.2l-3.9,4.5
			c15.8,18.2,34.4,23.3,49.6,23.5c17.1,0.2,33.4-5.9,41.5-16.2C187.8,173.3,172.3,165.4,161.5,161.4z"/>
		<path class="st2" d="M149.7,119.3c-6.3-1.7-11.2-3.2-15-4.6c-23.5-7.9-33.5-18-36.2-25.4c-2,4.4-3.1,9.4-3.2,14.8l0,0.4
			c-0.3,25.1,15.9,32.3,41.1,39.2c3.9,1.1,7.2,2.1,10,3l0,0c26.6,8.4,37,19.6,39.1,27.4c2.1-4.7,3.3-10,3.3-16l0-0.4
			C189.3,135.8,175.1,126.4,149.7,119.3z"/>
		<path class="st2" d="M122.9,101.6c0.3-5.9,5.9-10.5,16.2-10.3c6.1,0.1,12.2,1.7,18.5,4.6c8.6,4,18.8,1.4,24.3-6.4l4.3-6.1
			C173.9,72.2,159.3,66,141,65.8c-16-0.2-31.4,5.3-38.5,15.6C96.3,90.3,112.2,98.1,122.9,101.6z"/>
	</g>
</g>
</svg>
