<?xml version="1.0" encoding="utf-8"?>
<!-- Generator: Adobe Illustrator 16.0.0, SVG Export Plug-In . SVG Version: 6.00 Build 0)  -->
<!DOCTYPE svg PUBLIC "-//W3C//DTD SVG 1.1//EN" "http://www.w3.org/Graphics/SVG/1.1/DTD/svg11.dtd">
<svg version="1.1" id="Layer_1" xmlns="http://www.w3.org/2000/svg" xmlns:xlink="http://www.w3.org/1999/xlink" x="0px" y="0px"
	 width="1079.803px" height="1174.213px" viewBox="0 0 1079.803 1174.213" enable-background="new 0 0 1079.803 1174.213"
	 xml:space="preserve">
<g>
	<path fill="#3C4556" d="M932.838,0H146.966c-3.677,0-7.124,1.379-9.651,4.136L4.038,137.413c-4.366,4.366-5.285,11.03-2.298,16.315
		c108,196.469,84.562,335.03,62.042,468.996c-9.191,54.689-17.923,106.161-17.923,160.851c0,62.043,33.089,116.272,101.106,166.137
		c57.446,42.051,133.047,75.6,199.685,105.242c82.953,36.996,161.54,71.923,180.843,111.446c2.298,4.826,7.123,7.813,12.408,7.813
		s10.11-2.987,12.408-7.813c19.532-39.753,97.89-74.681,180.843-111.446c66.639-29.643,142.238-63.421,199.686-105.242
		c68.017-49.634,101.106-104.094,101.106-166.137c0-54.689-8.732-106.392-17.924-160.851
		c-22.52-133.966-45.728-272.528,62.043-468.996c2.986-5.285,2.067-11.949-2.299-16.315L942.488,4.136
		C939.961,1.379,936.515,0,932.838,0L932.838,0z"/>
	<path fill="#FFFFFF" d="M932.838,13.787l133.276,133.277c-153.957,280.34-45.957,448.085-45.957,636.51
		c0,211.404-425.107,264.256-480.256,376.852C484.753,1047.83,59.646,994.979,59.646,783.574c0-188.425,108-356.17-45.958-636.51
		L146.966,13.787H932.838"/>
	<path fill="#3C4556" d="M917.672,41.362h-755.54c-2.528,0-4.826,0.919-6.435,2.757L52.293,147.523
		c-2.757,2.757-3.447,7.124-1.608,10.57c99.957,196.697,75.37,342.612,53.77,471.523c-8.962,52.851-17.234,102.944-17.234,154.187
		c0,110.528,146.833,176.018,276.204,233.465c70.774,31.48,131.897,58.825,170.272,92.604c1.838,1.608,3.906,2.298,5.975,2.298
		c2.067,0,4.365-0.689,5.975-2.298c38.374-34.008,99.497-61.123,170.271-92.604c129.83-57.677,276.664-123.166,276.664-233.694
		c0-51.242-8.502-101.106-17.233-153.957c-21.601-128.911-46.188-274.826,53.77-471.523c1.839-3.447,1.149-7.813-1.608-10.57
		L924.105,44.119C922.497,42.281,919.97,41.362,917.672,41.362L917.672,41.362z"/>
	<g>
		<path fill="#FFFFFF" d="M120.633,588.255h838.708c-18.847-120.025-28.7-256.297,61.735-434.297L917.672,50.553H162.361
			L58.957,153.958C149.394,331.755,139.354,468.189,120.633,588.255z"/>
		<path fill="#FFFFFF" d="M117.69,606.639c-0.629,3.845-1.262,7.675-1.896,11.489h848.423c-0.64-3.814-1.278-7.645-1.912-11.489
			H117.69z"/>
	</g>
	<path fill="#3C4556" d="M630.667,341.693c20.451-17.464,33.319-43.2,33.319-71.693c0-52.621-43.659-95.361-97.659-95.361H450.284
		v45.957h113.745c28.493,0,51.702,23.209,51.702,51.702S592.522,324,564.029,324H450.284v45.957h124.085
		c33.09,0,59.745,26.655,59.745,59.745c0,33.089-26.655,59.744-59.745,59.744H450.284v45.958h128.681
		c58.366,0,105.702-46.188,105.702-103.404C684.667,393.166,662.838,359.388,630.667,341.693z"/>
	<polygon fill="#3C4556" points="385.484,174.639 132.948,535.404 191.774,535.404 395.136,244.953 395.136,535.404 
		443.391,535.404 443.391,174.639 	"/>
	<polygon fill="#3C4556" points="943.178,174.639 739.816,465.089 739.816,220.596 824.838,220.596 824.838,174.639 
		691.561,174.639 691.561,535.404 749.468,535.404 1002.003,174.639 	"/>
	<g>
		<path fill="#FFFFFF" d="M170.403,732.332c0,8.272-6.663,15.166-15.166,15.166c-8.502,0-15.165-6.894-15.165-15.166
			s6.663-15.166,15.165-15.166C163.74,717.166,170.403,723.83,170.403,732.332z"/>
		<path fill="#FFFFFF" d="M217.28,743.821h30.332v21.37h-55.608v-96.97h25.276V743.821z"/>
		<path fill="#FFFFFF" d="M282.77,748.417l-6.664,16.774h-26.885l37.226-96.97h27.574l36.767,96.97h-26.886l-6.204-16.774H282.77z
			 M300.463,698.094h-0.229l-10.34,30.791h20.91L300.463,698.094z"/>
		<path fill="#FFFFFF" d="M402.719,765.191v-96.97h36.076c17.234,0,28.724,6.663,28.724,25.276c0,8.731-2.758,15.855-10.57,19.762
			v0.229c13.787,1.838,19.762,11.26,19.762,24.817c0,20.221-17.464,27.114-35.157,27.114L402.719,765.191L402.719,765.191z
			 M427.995,706.366h2.758c6.663,0,13.557-1.149,13.557-9.422c0-8.961-7.813-9.421-14.706-9.421h-1.838v18.843H427.995z
			 M427.995,745.89h3.217c7.354,0,19.991,0.459,19.991-10.341c0-11.719-12.408-10.57-20.681-10.57h-2.527V745.89L427.995,745.89z"/>
		<path fill="#FFFFFF" d="M512.557,689.592v16.314h28.493v21.37h-28.493v16.774h29.872v21.37H487.28v-96.97h55.148v21.37h-29.872
			V689.592z"/>
		<path fill="#FFFFFF" d="M624.692,700.621c-5.055-6.894-13.557-10.57-22.059-10.57c-15.396,0-25.967,11.949-25.967,26.886
			c0,15.396,10.57,26.425,26.196,26.425c8.272,0,16.544-3.906,21.829-10.34v30.332c-8.271,2.527-14.477,4.596-22.289,4.596
			c-13.558,0-26.426-5.056-36.307-14.247c-10.57-9.651-15.625-22.289-15.625-36.766c0-13.328,5.055-25.967,14.247-35.617
			c9.421-9.881,23.208-15.626,36.995-15.626c8.043,0,15.626,1.839,22.979,4.826V700.621L624.692,700.621z"/>
		<path fill="#FFFFFF" d="M706.727,700.621c-5.055-6.894-13.557-10.57-22.06-10.57c-15.396,0-25.966,11.949-25.966,26.886
			c0,15.396,10.57,26.425,26.196,26.425c8.271,0,16.544-3.906,21.829-10.34v30.332c-8.272,2.527-14.477,4.596-22.289,4.596
			c-13.558,0-26.426-5.056-36.307-14.247c-10.57-9.651-15.625-22.289-15.625-36.766c0-13.328,5.055-25.967,14.247-35.617
			c9.421-9.881,23.208-15.626,36.995-15.626c8.043,0,15.626,1.839,22.979,4.826V700.621L706.727,700.621z"/>
		<path fill="#FFFFFF" d="M745.561,748.417l-6.663,16.774h-26.655l37.226-96.97h27.574l36.536,96.97h-26.886l-6.204-16.774H745.561z
			 M763.255,698.094h-0.23l-10.34,30.791h20.91L763.255,698.094z"/>
		<path fill="#FFFFFF" d="M899.978,765.191h-31.48L844.6,727.966h-0.23v37.226h-25.276v-96.97h37.915
			c19.072,0,33.778,9.191,33.778,29.872c0,13.327-7.353,25.047-21.141,27.345L899.978,765.191z M844.6,711.651h2.527
			c8.272,0,17.464-1.609,17.464-12.179c0-10.57-9.191-12.179-17.464-12.179H844.6V711.651z"/>
		<path fill="#FFFFFF" d="M942.259,732.332c0,8.272-6.664,15.166-15.166,15.166c-8.272,0-15.166-6.894-15.166-15.166
			s6.664-15.166,15.166-15.166S942.259,723.83,942.259,732.332z"/>
	</g>
	<g>
		<path fill="#FFFFFF" d="M165.349,799.659h6.894v37.686h20.221v5.975h-27.114V799.659z"/>
		<path fill="#FFFFFF" d="M196.829,799.659h6.664v43.66h-6.664V799.659z"/>
		<path fill="#FFFFFF" d="M209.697,821.489c0-13.098,9.421-22.289,22.52-22.289c6.663,0,11.948,1.838,15.396,5.744l-4.596,4.596
			c-2.527-2.527-5.745-4.365-11.03-4.365c-9.191,0-15.396,6.894-15.396,16.314c0,9.422,6.435,16.314,16.315,16.314
			c4.596,0,8.271-1.148,10.8-2.757v-7.813h-11.72v-5.975h17.924v17.004c-2.758,2.528-8.962,5.515-17.004,5.515
			C219.349,844.009,209.697,834.587,209.697,821.489z"/>
		<path fill="#FFFFFF" d="M271.28,799.2h0.689l19.072,44.119h-7.123l-2.528-6.204h-19.991l-2.527,6.204h-6.664L271.28,799.2z
			 M279.093,831.37l-5.515-13.558c-1.148-2.527-2.298-6.434-2.298-6.434s-0.919,3.906-2.068,6.434l-5.515,13.558H279.093z"/>
		<path fill="#FFFFFF" d="M338.148,843.319h-7.813l-7.813-11.489c-1.148,0.229-2.527,0.229-3.676,0.229h-4.137v11.26h-6.894v-43.66
			h11.03c12.179,0,18.842,6.205,18.842,16.315c0,6.664-2.987,11.489-8.731,13.787L338.148,843.319z M318.616,826.315
			c8.732,0,12.179-3.907,12.179-10.341c0-6.664-3.677-10.341-12.179-10.341h-3.906v20.682H318.616z"/>
		<path fill="#FFFFFF" d="M344.123,799.659h27.804v5.975h-20.91v17.005h18.612v5.744h-18.612v8.962h21.83v5.975h-28.724V799.659
			L344.123,799.659z"/>
		<path fill="#FFFFFF" d="M375.145,821.489c0-13.098,9.421-22.289,22.519-22.289c6.664,0,11.949,1.838,15.396,5.744l-4.596,4.596
			c-2.527-2.527-5.744-4.365-11.029-4.365c-9.191,0-15.396,6.894-15.396,16.314c0,9.422,6.435,16.314,16.315,16.314
			c4.596,0,8.272-1.148,10.8-2.757v-7.813h-11.719v-5.975h17.923v17.004c-2.757,2.528-8.961,5.515-17.004,5.515
			C384.795,844.009,375.145,834.587,375.145,821.489z"/>
		<path fill="#FFFFFF" d="M422.939,799.659h6.664v43.66h-6.664V799.659z"/>
		<path fill="#FFFFFF" d="M435.808,821.489c0-13.098,10.11-22.52,22.52-22.52c12.408,0,22.519,9.422,22.519,22.52
			s-10.11,22.52-22.519,22.52C445.688,844.009,435.808,834.587,435.808,821.489z M473.952,821.489
			c0-9.421-6.434-16.314-15.625-16.314s-15.626,7.123-15.626,16.314s6.435,16.314,15.626,16.314S473.952,830.681,473.952,821.489z"
			/>
		<path fill="#FFFFFF" d="M496.931,817.813c-1.838-1.838-4.136-4.825-4.136-4.825s0.46,3.677,0.46,6.204v24.128h-6.205V799.2h0.92
			l24.127,25.966c1.609,1.838,4.137,4.825,4.137,4.825s-0.46-3.906-0.46-6.204v-24.128h6.204v44.119h-0.919L496.931,817.813z"/>
		<path fill="#FFFFFF" d="M544.497,799.2h0.689l19.072,44.119h-7.123l-2.528-6.204h-19.991l-2.527,6.204h-6.664L544.497,799.2z
			 M552.31,831.37l-5.515-13.558c-1.148-2.527-2.298-6.434-2.298-6.434s-0.919,3.906-2.068,6.434l-5.515,13.558H552.31z"/>
		<path fill="#FFFFFF" d="M568.396,799.659h6.893v37.686h20.222v5.975h-27.114V799.659z"/>
		<path fill="#FFFFFF" d="M612.974,799.659h11.949c14.017,0,23.438,8.732,23.438,21.83s-9.192,21.83-23.438,21.83h-11.949V799.659z
			 M624.463,837.345c11.489,0,16.774-6.664,16.774-15.855c0-9.421-5.285-15.855-16.774-15.855h-4.825v31.711H624.463
			L624.463,837.345z"/>
		<path fill="#FFFFFF" d="M654.335,799.659h27.805v5.975h-20.91v17.005h18.612v5.744h-18.612v8.962h21.829v5.975h-28.724V799.659
			L654.335,799.659z"/>
		<path fill="#FFFFFF" d="M701.672,799.659h27.114v5.975h-20.451v17.464h18.613v5.975h-18.613v14.247h-6.894v-43.66H701.672z"/>
		<path fill="#FFFFFF" d="M733.152,827.923v-28.264h6.894v28.034c0,7.124,3.447,10.341,9.881,10.341
			c6.435,0,9.881-3.217,9.881-10.341v-28.034h6.664v28.264c0,10.57-7.124,15.855-16.774,15.855
			C740.506,844.009,733.152,838.493,733.152,827.923z"/>
		<path fill="#FFFFFF" d="M783.476,805.634h-13.098v-5.975h32.859v5.975H790.14v37.686h-6.664V805.634L783.476,805.634z"/>
		<path fill="#FFFFFF" d="M807.144,799.659h15.855c8.272,0,12.408,5.056,12.408,11.03c0,4.136-2.067,7.123-5.974,8.502
			c5.744,1.379,8.961,5.515,8.961,11.03c0,7.582-5.055,13.098-14.246,13.098h-17.005V799.659L807.144,799.659z M822.77,816.664
			c4.136,0,5.975-2.298,5.975-5.515c0-3.218-1.839-5.516-6.204-5.516h-8.732v11.03H822.77z M823.918,837.345
			c5.285,0,7.813-2.987,7.813-7.354c0-4.365-2.758-7.354-8.043-7.354h-9.421v14.937L823.918,837.345L823.918,837.345z"/>
		<path fill="#FFFFFF" d="M841.612,821.489c0-13.098,10.11-22.52,22.519-22.52c12.409,0,22.52,9.422,22.52,22.52
			s-10.11,22.52-22.52,22.52C851.493,844.009,841.612,834.587,841.612,821.489z M879.757,821.489
			c0-9.421-6.435-16.314-15.626-16.314s-15.625,7.123-15.625,16.314s6.434,16.314,15.625,16.314S879.757,830.681,879.757,821.489z"
			/>
		<path fill="#FFFFFF" d="M892.625,799.659h6.894v37.686h20.221v5.975h-27.114V799.659z"/>
	</g>
</g>
</svg>
